<svg xmlns="http://www.w3.org/2000/svg" viewBox="0 0 65 38.11"><defs><style>.cls-1{fill:#424143;}.cls-2,.cls-3{fill:#355daa;}.cls-3{font-size:6.58px;font-family:ArialNarrow-Bold, Arial;font-weight:700;}.cls-4{letter-spacing:-0.04em;}</style></defs><title>Asset 48</title><g id="Layer_2" data-name="Layer 2"><g id="Layer_1-2" data-name="Layer 1"><path class="cls-1" d="M4.55,29.94V5.24H0V.41H15.57V5.24H11.08v24.7Z"/><path class="cls-1" d="M25.94,30.35q-4.2,0-6.26-2.23T17.46,21l5.59-.85a9.89,9.89,0,0,0,.67,4,2,2,0,0,0,1.9,1.26c1.1,0,1.66-.71,1.66-2.14a5.68,5.68,0,0,0-.43-2.2,6.75,6.75,0,0,0-1.05-1.72,18.4,18.4,0,0,0-1.75-1.67l-2.62-2.26a19.31,19.31,0,0,1-1.56-1.5,10.75,10.75,0,0,1-1.22-1.61,7,7,0,0,1-.89-2.08,10.31,10.31,0,0,1-.28-2.51A7.32,7.32,0,0,1,19.69,2a8.7,8.7,0,0,1,6-2,9.4,9.4,0,0,1,2.4.29A6.64,6.64,0,0,1,30,1a5.33,5.33,0,0,1,1.3,1.17,7.32,7.32,0,0,1,.89,1.41,8.84,8.84,0,0,1,.55,1.58A11.42,11.42,0,0,1,33,6.8c.06.49.1,1,.12,1.57l-5.65.73c0-.5,0-.91,0-1.24s-.05-.67-.1-1a4,4,0,0,0-.2-.89,2.71,2.71,0,0,0-.33-.63,1,1,0,0,0-.51-.42,1.89,1.89,0,0,0-.74-.11,1.53,1.53,0,0,0-1.31.73,2.83,2.83,0,0,0-.45,1.57A5.25,5.25,0,0,0,24,8.6a4.06,4.06,0,0,0,.71,1.32,11.54,11.54,0,0,0,.83,1c.21.22.57.55,1.07,1l2.51,2.21a22.93,22.93,0,0,1,1.78,1.77,14.87,14.87,0,0,1,1.43,1.93,8.67,8.67,0,0,1,1,2.37,10.67,10.67,0,0,1,.35,2.77,7.13,7.13,0,0,1-2.14,5.31A7.61,7.61,0,0,1,25.94,30.35Z"/><path class="cls-1" d="M45.08,29.94,41.52.41h4.07l3.22,17.15L51.07.41h4.31l2.37,17.07L59.53.41H65L61.42,29.94H55.75L53.24,12.13,50.82,29.94Z"/><path class="cls-2" d="M42.87.41H35.5L29.9,29.94h6.18l.52-3.25v-.05L38,17.2v-.05l1.21-8.81,1.13,8.13,1.53,10.22.53,3.25h6Z"/><text class="cls-3" transform="translate(0 36.09) scale(1.07 1)"><tspan class="cls-4">T</tspan><tspan x="3" y="0">ransforming Humanity</tspan></text></g></g></svg>